<svg width="93" height="34" viewBox="0 0 93 34" fill="none" xmlns="http://www.w3.org/2000/svg">
<path d="M54.5752 1.02734V9.72761H48.0157V6.48903H44.3105V20.2393H48.0157V13.4328H54.5752V20.2393H58.3078V1.02734H54.5752Z" fill="white"/>
<path d="M53.1486 1.02734H33.6348V4.73251H39.2611V20.2393H42.9663V4.73251H53.1486V1.02734Z" fill="white"/>
<path d="M63.4674 20.2393V1.02734H59.7622V20.2393H63.4674Z" fill="white"/>
<path d="M77.4924 5.0894C77.4924 2.83886 75.681 1 73.4304 1H64.8125V20.2119H68.5177V15.2717H72.1405C73.0462 15.2717 73.7872 16.0128 73.7872 16.9185V20.2394H77.4924V16.9185C77.4924 15.7932 77.1356 14.7228 76.5318 13.8446C77.1356 13.131 77.4924 12.1978 77.4924 11.1823V5.0894ZM73.7872 11.1823C73.7872 11.4019 73.6226 11.5666 73.4304 11.5666H68.5177V4.70516H73.4304C73.6226 4.70516 73.7872 4.86984 73.7872 5.0894V11.1823Z" fill="white"/>
<path d="M88.938 1.02734H78.8105V20.2393H88.938C91.1885 20.2393 92.9999 18.4004 92.9999 16.1499V5.11674C92.9999 2.8662 91.1885 1.02734 88.938 1.02734ZM89.2948 16.1499C89.2948 16.3695 89.1301 16.5341 88.938 16.5341H82.5157V4.73251H88.938C89.1301 4.73251 89.2948 4.89718 89.2948 5.11674V16.1499Z" fill="white"/>
<path d="M45.5022 22.1602V31.2337C45.5022 31.3654 45.4364 31.4642 45.354 31.4642H41.6159C41.5501 31.4642 41.4677 31.3654 41.4677 31.2337V22.1602H39.2446V31.2337C39.2446 32.584 40.315 33.6873 41.6159 33.6873H45.354C46.6714 33.6873 47.7418 32.584 47.7418 31.2337V22.1602H45.5022Z" fill="white"/>
<path d="M54.3094 22.161L54.2929 29.1926L50.2913 22.1445H48.0682L48.0518 33.6717H50.2749L50.2913 26.6401L54.2929 33.6882H56.516L56.5325 22.161H54.3094Z" fill="white"/>
<path d="M59.0659 33.6873V22.1602H56.8428V33.6873H59.0659Z" fill="white"/>
<path d="M67.4122 25.1078V24.4985C67.4122 23.2141 66.3089 22.1602 64.9586 22.1602H61.8462C60.4959 22.1602 59.3926 23.2141 59.3926 24.4985V31.349C59.3926 32.6334 60.4959 33.6873 61.8462 33.6873H64.9586C66.3089 33.6873 67.4122 32.6334 67.4122 31.349V30.4597H65.1891V31.349C65.1891 31.3654 65.1068 31.4642 64.9586 31.4642H61.8462C61.698 31.4642 61.6157 31.3654 61.6157 31.349V24.4985C61.6157 24.4821 61.698 24.3833 61.8462 24.3833H64.9586C65.1068 24.3833 65.1891 24.4821 65.1891 24.4985V25.1078H67.4122Z" fill="white"/>
<path d="M73.5521 22.1602H70.1763C68.826 22.1602 67.7227 23.2635 67.7227 24.6138V31.2337C67.7227 32.584 68.826 33.6873 70.1763 33.6873H73.5521C74.9024 33.6873 76.0057 32.584 76.0057 31.2337V24.6138C76.0057 23.2635 74.9024 22.1602 73.5521 22.1602ZM73.7827 31.2337C73.7827 31.3654 73.6838 31.4642 73.5521 31.4642H70.1763C70.0446 31.4642 69.9458 31.3654 69.9458 31.2337V24.6138C69.9458 24.4821 70.0446 24.3833 70.1763 24.3833H73.5521C73.6838 24.3833 73.7827 24.4821 73.7827 24.6138V31.2337Z" fill="white"/>
<path d="M83.9405 24.5982C83.9405 23.2478 82.8536 22.1445 81.5033 22.1445H76.3325V33.6717H78.5556V30.7076H80.7293C81.2727 30.7076 81.7174 31.1522 81.7174 31.6956V33.6882H83.9405V31.6956C83.9405 31.0205 83.7264 30.3782 83.3641 29.8513C83.7264 29.4231 83.9405 28.8632 83.9405 28.2539V24.5982ZM81.7174 28.2539C81.7174 28.3857 81.6185 28.4845 81.5033 28.4845H78.5556V24.3676H81.5033C81.6185 24.3676 81.7174 24.4664 81.7174 24.5982V28.2539Z" fill="white"/>
<path d="M90.5076 22.161L90.4911 29.1926L86.4896 22.1445H84.2665L84.25 33.6717H86.4731L86.4896 26.6401L90.4911 33.6882H92.7142L92.7307 22.161H90.5076Z" fill="white"/>
<path d="M20.5293 9.61429C20.5293 11.294 20.0939 12.8259 19.2229 14.2101C18.352 15.5942 17.1855 16.644 15.7236 17.3595C17.1855 18.0749 18.352 19.1247 19.2229 20.5088C20.0939 21.893 20.5293 23.4249 20.5293 25.1046C20.5293 27.4686 19.6895 29.4904 18.0098 31.1701C16.3302 32.8498 14.3083 33.6896 11.9443 33.6896H0V26.6443H1.77299V31.9166H7.13861C9.03602 31.9166 10.6535 31.2479 11.991 29.9103C13.3285 28.5728 13.9973 26.9631 13.9973 25.0813C13.9973 23.1994 13.3285 21.5897 11.991 20.2522C10.6535 18.9147 9.03602 18.2459 7.13861 18.2459H0.886494V16.473H7.13861C9.03602 16.473 10.6535 15.8042 11.991 14.4667C13.3285 13.1292 13.9973 11.5195 13.9973 9.63762C13.9973 7.75577 13.3285 6.14608 11.991 4.80856C10.6535 3.47104 9.03602 2.80229 7.13861 2.80229H1.77299V8.07459H0V1.0293H11.9443C14.3083 1.0293 16.3302 1.86913 18.0098 3.54881C19.6895 5.22848 20.5293 7.25031 20.5293 9.61429ZM16.9367 29.817C18.1809 28.4795 18.803 26.9009 18.803 25.0813C18.803 23.2616 18.1809 21.6986 16.9367 20.3922C15.6925 19.0858 14.1684 18.3704 12.3643 18.2459C13.3907 19.0547 14.2072 20.0578 14.8138 21.2554C15.4203 22.4529 15.7236 23.736 15.7236 25.1046C15.7236 26.4732 15.4203 27.7485 14.8138 28.9305C14.2072 30.1125 13.3907 31.1079 12.3643 31.9166C14.1684 31.8233 15.6925 31.1234 16.9367 29.817ZM12.3643 16.473C14.1684 16.3485 15.6925 15.6331 16.9367 14.3267C18.1809 13.0203 18.803 11.4573 18.803 9.63762C18.803 7.81798 18.1809 6.24717 16.9367 4.92521C15.6925 3.60324 14.1684 2.8956 12.3643 2.80229C13.3907 3.61102 14.2072 4.60638 14.8138 5.78837C15.4203 6.97036 15.7236 8.24567 15.7236 9.61429C15.7236 10.9829 15.4203 12.266 14.8138 13.4635C14.2072 14.6611 13.3907 15.6642 12.3643 16.473Z" fill="white"/>
<path d="M27.2251 7.51274C26.6928 7.94769 26.0483 8.16516 25.2914 8.16516C24.5346 8.16516 23.888 7.94599 23.3515 7.50764C22.8151 7.0693 22.5469 6.5409 22.5469 5.92246V1.0293H24.3059V5.92246C24.3059 6.33702 24.4556 6.70911 24.755 7.03872C25.0544 7.36832 25.4495 7.5909 25.9402 7.70643C26.4142 7.5909 26.8051 7.36832 27.1128 7.03872C27.4206 6.70911 27.5744 6.33702 27.5744 5.92246V1.0293H28.036V5.92246C28.036 6.5409 27.7657 7.071 27.2251 7.51274ZM23.0209 1.41667V5.92246C23.0209 6.39139 23.2122 6.80255 23.5948 7.15595C23.9774 7.50934 24.4514 7.71322 25.017 7.76759C24.651 7.56371 24.362 7.29866 24.1499 6.97245C23.9379 6.64624 23.8318 6.29625 23.8318 5.92246V1.41667H23.0209Z" fill="white" stroke="white" stroke-width="0.345286"/>
<path d="M33.9092 7.7666V33.6886" stroke="white" stroke-width="0.575477"/>
</svg>
